<?xml version="1.0" ?><!DOCTYPE svg  PUBLIC '-//W3C//DTD SVG 1.1//EN'  'http://www.w3.org/Graphics/SVG/1.1/DTD/svg11.dtd'><svg height="234.000" viewBox="-72.000 -162.000 236.000 234.000" width="236.000" xmlns="http://www.w3.org/2000/svg"><line fill="none" stroke="none" stroke-linecap="round" stroke-width="2.0" x1="0.0" x2="0.0" y1="0.0" y2="0.0"/><polyline fill="none" points="0.0,0.0 90.0,0.0 90.0349048129,-1.99969539031 91.6056213922,-91.9859879544 88.6074489112,-92.0906864445 -1.33772552055,-95.2316411477 -1.54706934552,-91.2371230087 -6.25730540738,-1.36046488079 -1.26948515608,-1.01168251207 88.5112793673,5.2664001249 89.0342138238,-0.710768063649 96.8782306711,-90.3682908919 89.9165774035,-91.0999901348 0.409606820353,-100.507551829 -0.565347926888,-92.5671826157 -11.5335888334,-3.23802896802 -2.62117621468,-1.98547105938 86.5029499721,10.540108027 88.0672946225,0.663224621076 102.146396476,-88.2287260325 91.313511193,-90.1388559868 2.68081342185,-105.767191977 0.391105477336,-93.9876657755 -16.7817041066,-5.64121926518 -4.06578529701,-2.93836728455 83.967498769,15.773684889 87.1168135298,2.13250398205 107.362408421,-85.5608018486 92.8079725267,-89.1896302826 5.48135716181,-110.962600887 1.34025244017,-95.507787666 -21.9534616191,-8.57446329994 -5.6120127881,-3.88862825105 80.9015398463,20.9187337725 86.1642305314,3.70524816514 112.477683956,-82.3621798715 94.4076101468,-88.2335027647 8.81252368023,-116.045032258 2.30116059108,-97.1346607464 -26.9999733101,-12.0379889425 -7.26642827356,-4.85556593264 77.3059075972,25.9262469667 85.1900024872,5.38747758373" stroke="#000" stroke-linecap="round" stroke-linejoin="round"/><polyline fill="none" points="85.1900024872,5.38747758373 117.443117946,-78.634760801 96.1178892912,-87.2507124496 12.6713423802,-120.965305857 3.29379529646,-98.8731893742 -31.8720062676,-16.0277525634 -9.03336982651,-5.85933648654 73.1857213613,30.7469613903 84.1737961666,7.18295892733 122.209439723,-74.384741906 97.9420004732,-86.2207628693 17.0505363062,-125.67416608 4.33880231354,-100.725983403 -36.520342663,-20.5353962261 -10.9148624701,-6.92072090527 68.5504208872,35.3317197455 83.0947094946,9.09312853128 126.727575317,-69.6226451113 99.8807877994,-85.1226451113 21.9385014588,-130.122645111 5.45728306171,-102.693291489 -40.8961436802,-25.5482344256 -12.910556507,-8.06089870592 63.413772147,39.6318350751 81.9314993376,11.1170357649 130.949012489,-64.3633153502 101.932697449,-83.9350669716 27.3193159195,-134.262428284 6.67056421089,-104.77295469 -44.9513150607,-31.0492707036 -15.0176862688,-9.30121636877 57.7938432249,43.5994563376 80.6628141047,13.2513069558 134.826166188,-58.6258889485 104.093746798,-82.6366864862 33.1727789731,-138.046219266 7.99996333112,-106.960380807 -48.6388718634,-37.0172442761 -17.2310496955,-10.662952279 51.7129501852,47.1879325928 79.2674294028,15.4901302235 138.312742012,-52.4337319966 106.357514516,-81.20634807" stroke="#000" stroke-linecap="round" stroke-linejoin="round"/><polyline fill="none" points="106.357514516,-81.20634807 39.4744802235,-141.428102642 9.46655238072,-109.248539771 -51.9133000249,-43.4267066253 -19.5430090097,-12.1670799547 45.1975730208,50.3521733866 77.7244849554,17.8252614521 141.364095262,-45.8143488547 108.715151851,-79.6233194707 46.1958985093,-144.363901501 11.0909208316,-111.627980218 -54.7309123141,-50.2481278125 -21.9435126026,-13.8340313641 38.2782419697,53.0490029288 76.0137209809,20.2460514793 143.937583201,-38.7992611298 111.155415107,-77.8675277289 53.3045302351,-146.81152761 12.8929402394,-114.086867275 -57.0501962918,-57.4480320805 -24.4201380995,-15.6834621394 30.9893946798,55.2375056852 74.1157122224,22.739494435 145.992908127,-31.4238576487 113.664719251,-75.9197923393 60.7640465442,-148.731321833 14.891532064,-116.611041397 -58.832151922,-64.9891621258 -26.9581564242,-17.7340204901 23.3692048882,56.8793610398 72.012097829,25.2902970089 147.492448944,-23.7272161424 116.227212354,-73.7620538156 68.5344785734,-150.08638247 17.1044405313,-119.184097975 -60.0406165319,-72.8306712332 -29.5406165319,-20.0031216024 15.4593834681,57.9391647382 69.6858053107,27.880968283 148.401578953,-15.7518975392 118.824870498,-71.3775958893 76.572429847,-150.842879247 19.548012299,-121.787487263" stroke="#000" stroke-linecap="round" stroke-linejoin="round"/><polyline fill="none" points="19.548012299,-121.787487263 -60.642574878,-80.9283422867 -32.1484503367,-22.5067292773 7.30495287432,58.3847348897 67.1212668187,30.4919296148 148.688967652,-7.5437139419 121.437612566,-68.751259604 84.8313146891,-150.970350792 22.2369846544,-124.400634055 -60.6084521564,-89.2348324905 -34.7605972107,-25.2591465254 -1.04600380322,58.1874003856 64.3046260516,33.1016439175 148.326864436,0.848528458389 124.04343426,-65.8696476174 93.2616213609,-150.441983488 25.1842839177,-127.001076367 -59.9123878862,-97.6999424661 -37.3541472968,-28.2728167765 -9.54261780307,57.32226969 61.2239341382,35.6867635405 147.291362175,9.3733101155 126.618560489,-62.7213170799 101.811198465,-149.234869714 28.4008356671,-129.564622287 -58.5324886989,-106.270908227 -39.9045027378,-31.5581373041 -18.1315321338,55.7684780608 57.8693329195,38.222295822 145.56263875,17.976700931 129.137615176,-59.296959527 110.425563002,-147.330243593 31.8953883261,-132.065523963 -56.4510581842,-114.892714379 -42.3855557931,-35.123286385 -26.7572198031,53.5094113861 54.2332241257,40.6817852528 143.125174779,26.6026833992 131.5738074,-55.5895663064 119.048228313,-144.713692493 35.6743515753,-134.476667647 -53.6548020724,-123.508426741 -44.7698826947,-38.9740656343" stroke="#000" stroke-linecap="round" stroke-linejoin="round"/><polyline fill="none" points="-44.7698826947,-38.9740656343 -35.3623210006,50.5329049488 50.3104230353,43.0375110725 139.967945864,35.1934942252 133.899132648,-51.5945781474 127.621050011,-141.375342671 39.7416509524,-136.769778521 -50.1350071755,-132.059542459 -47.028951969,-43.1137588548 -43.8879972657,46.8314155769 46.0982952983,45.2606989976 136.084587862,43.6899824182 136.084587862,-47.3100175818 136.084587862,-137.310017582 44.098599908,-138.915638974 -45.887692656,-140.486355553 -49.1333458494,-47.5430086406 -52.2743005526,42.4021657911 41.5968757143,47.321745678 131.473533842,52.0319817398 138.100398848,-42.7366030349 144.378481485,-132.517367558 48.7437904681,-140.884318862 -40.9137323602,-148.728335709 -51.0529932971,-52.2597118586 -60.4605549912,37.2472587246 36.8089678696,49.1904543783 126.138121517,60.1586952847 139.916258512,-37.8778435207 152.441837599,-127.001969707 53.6730035393,-142.645416211" stroke="#000" stroke-linecap="round" stroke-linejoin="round"/><polygon fill="#000" fill-rule="evenodd" points="53.6730035393,-142.645416211 61.7800262794,-136.299064323 60.5868219235,-141.550374956 63.3443709299,-146.175947729" stroke="#000" stroke-linejoin="round"/></svg>