<?xml version="1.0" ?><!DOCTYPE svg  PUBLIC '-//W3C//DTD SVG 1.1//EN'  'http://www.w3.org/Graphics/SVG/1.1/DTD/svg11.dtd'><svg height="395.000" viewBox="-122.000 -322.000 485.000 395.000" width="485.000" xmlns="http://www.w3.org/2000/svg"><line fill="none" stroke="none" stroke-linecap="round" stroke-width="2.0" x1="0.0" x2="0.0" y1="0.0" y2="0.0"/><polyline fill="none" points="0.0,0.0 60.0,0.0 30.0,-51.9615242271" stroke="#000" stroke-linecap="round" stroke-linejoin="round"/><polygon fill="#0a22ff" fill-rule="evenodd" points="100.0,-60.0 160.0,-60.0 160.0,-120.0 100.0,-120.0 100.0,-60.0" stroke-linejoin="round"/><polyline fill="none" points="100.0,-60.0 160.0,-60.0 160.0,-120.0 100.0,-120.0 100.0,-60.0" stroke="#000" stroke-linecap="round" stroke-linejoin="round" stroke-width="5.0"/><polygon fill="#0a2217" fill-rule="evenodd" points="-100.0,60.0 -95.3527682796,58.8545602565 -91.7701613411,55.6806474673 -90.072911259,51.2053668026 -90.6498375731,46.4539511296 -93.3687734176,42.5148925183 -97.6068433571,40.2905818257 -102.393156643,40.2905818257 -106.631226582,42.5148925183 -109.350162427,46.4539511296 -109.927088741,51.2053668026 -108.229838659,55.6806474673 -104.64723172,58.8545602565 -100.0,60.0" stroke-linejoin="round"/><polyline fill="none" points="-100.0,60.0 -95.3527682796,58.8545602565 -91.7701613411,55.6806474673 -90.072911259,51.2053668026 -90.6498375731,46.4539511296 -93.3687734176,42.5148925183 -97.6068433571,40.2905818257 -102.393156643,40.2905818257 -106.631226582,42.5148925183 -109.350162427,46.4539511296 -109.927088741,51.2053668026 -108.229838659,55.6806474673 -104.64723172,58.8545602565 -100.0,60.0" stroke="#000" stroke-linecap="round" stroke-linejoin="round" stroke-width="2.0"/><polygon fill="#0a22ff" fill-rule="evenodd" points="50.0,-10.0 350.0,-10.0 290.0,-310.0 230.0,-10.0" stroke-linejoin="round"/><polyline fill="none" points="50.0,-10.0 350.0,-10.0 290.0,-310.0 230.0,-10.0" stroke="#000" stroke-linecap="round" stroke-linejoin="round" stroke-width="2.0"/><line fill="none" stroke="none" stroke-linecap="round" stroke-width="2.0" x1="0.0" x2="0.0" y1="0.0" y2="0.0"/><polygon fill="#ff2217" fill-rule="evenodd" points="-100.0,-60.0 -109.0,-65.0 -107.0,-60.0 -109.0,-55.0" stroke="#ff2217" stroke-linejoin="round"/><text fill="#ff2217" font-family="Arial" font-size="24.0pt" stroke-width="0.0" x="-101.0" y="-65">60</text></svg>