<?xml version="1.0" ?><!DOCTYPE svg  PUBLIC '-//W3C//DTD SVG 1.1//EN'  'http://www.w3.org/Graphics/SVG/1.1/DTD/svg11.dtd'><svg height="328.000" viewBox="-141.000 -255.000 317.000 328.000" width="317.000" xmlns="http://www.w3.org/2000/svg"><line fill="none" stroke="none" stroke-linecap="round" stroke-width="2.0" x1="0.0" x2="0.0" y1="0.0" y2="0.0"/><polyline fill="none" points="0.0,0.0 60.0,0.0 30.0,-51.9615242271" stroke="#000" stroke-linecap="round" stroke-linejoin="round"/><polygon fill="#0a22ff" fill-rule="evenodd" points="100.0,-60.0 160.0,-60.0 160.0,-120.0 100.0,-120.0 100.0,-60.0" stroke-linejoin="round"/><polyline fill="none" points="100.0,-60.0 160.0,-60.0 160.0,-120.0 100.0,-120.0 100.0,-60.0" stroke="#000" stroke-linecap="round" stroke-linejoin="round" stroke-width="5.0"/><polygon fill="#0a2217" fill-rule="evenodd" points="-100.0,60.0 -95.3527682796,58.8545602565 -91.7701613411,55.6806474673 -90.072911259,51.2053668026 -90.6498375731,46.4539511296 -93.3687734176,42.5148925183 -97.6068433571,40.2905818257 -102.393156643,40.2905818257 -106.631226582,42.5148925183 -109.350162427,46.4539511296 -109.927088741,51.2053668026 -108.229838659,55.6806474673 -104.64723172,58.8545602565 -100.0,60.0" stroke-linejoin="round"/><polyline fill="none" points="-100.0,60.0 -95.3527682796,58.8545602565 -91.7701613411,55.6806474673 -90.072911259,51.2053668026 -90.6498375731,46.4539511296 -93.3687734176,42.5148925183 -97.6068433571,40.2905818257 -102.393156643,40.2905818257 -106.631226582,42.5148925183 -109.350162427,46.4539511296 -109.927088741,51.2053668026 -108.229838659,55.6806474673 -104.64723172,58.8545602565 -100.0,60.0" stroke="#000" stroke-linecap="round" stroke-linejoin="round" stroke-width="2.0"/><polygon fill="#0a22ff" fill-rule="evenodd" points="3.0,-10.0 123.0,-10.0 63.0,-15.0 3.0,-10.0" stroke-linejoin="round"/><polyline fill="none" points="3.0,-10.0 123.0,-10.0 63.0,-15.0 3.0,-10.0" stroke="#000" stroke-linecap="round" stroke-linejoin="round" stroke-width="2.0"/><text fill="#ff2217" font-family="Arial" font-size="24.0pt" stroke-width="0.0" x="-101.0" y="-65">juancho</text><polyline fill="none" points="30.0,-51.9615242271 90.0,-51.9615242271 60.0,-103.923048454 14.9999999999,-181.865334795 10.0583986546,-179.12616044 -68.6573749879,-135.493294618 -65.5353890954,-129.621693126 -23.2829484446,-50.1564097683 -16.4667485346,-53.6294370913 63.7238386423,-94.4885820679 59.9319282226,-102.263150568 20.4785250116,-183.154614735 11.7326548667,-179.07634851 -69.8350459666,-141.040704953 -65.5033007179,-131.311445829 -28.897002841,-49.0923546411 -18.1731212983,-53.644372288 64.6723155124,-88.8101738521 59.9335421057,-100.539049612 26.2189486982,-183.985596523 13.4755758766,-179.093874012 -70.5466625082,-146.840758553 -65.5360674085,-133.074261658 -34.7542545091,-48.5019257877 -19.956888801,-53.597067405 65.1397830029,-82.8982013062 59.9946500466,-98.7332923025 32.1831205528,-184.328378769 15.3043416101,-179.168018181 -70.7630864266,-152.854564756 -65.6224497406,-134.927034126 -40.815087717,-48.4134814919 -21.8346452304,-53.4992757282 65.0986791356,-76.7929897874 60.1029919914,-96.829596535 38.3300213874,-184.1562119 17.2349094848,-179.286021573 -70.4583963459,-159.040426682 -65.7491965488,-136.885383526 -47.0371443752,-48.8520994597 -23.8216614866,-53.3647322003 64.5247850236,-70.5375417843 60.2443574441,-94.813052896" stroke="#000" stroke-linecap="round" stroke-linejoin="round"/><polyline fill="none" points="60.2443574441,-94.813052896 44.6160214541,-183.445750667 19.2818155178,-179.433206639 -69.6101351358,-165.354104785 -65.9011719952,-138.963460753 -53.3755929087,-49.8393345664 -25.9316918158,-53.2090219116 63.3974618319,-64.1772628181 60.4027213593,-92.6703151204 50.9951596651,-182.177285704 21.4579868667,-179.593117931 -68.1995359615,-171.749101084 -66.0615000413,-141.173762943 -59.7834174043,-51.3929984199 -28.1767926293,-53.049431435 61.6998654986,-57.7596674969 60.5603969313,-90.3897779991 57.419442228,-180.334952431 23.774567286,-179.747678954 -66.2117252781,-178.176962375 -66.2117252781,-143.526962375 -66.211725278,-53.5269623748 -30.5671549457,-52.9047840853 59.4191376184,-51.334067506 60.6982041725,-87.9617413162 63.8391588757,-177.906915748 26.2407568922,-179.8773645 -63.6359012357,-184.587600562 -66.3319889459,-146.03175002 -72.6100715829,-56.2509854964 -33.1109518035,-52.7952602965 56.5465710247,-44.9512434492 60.7956530566,-85.3785584959 70.2032147506,-174.885529079 28.8636675347,-179.961387232 -60.465486113,-190.929628138 -66.4012188689,-148.694695006 -78.9267979553,-59.5705688197 -35.8142018883,-52.7422044207 53.0777487653,-38.6631025672 60.8311398981,-82.6347687392 76.4594758881,-171.26746651 31.6481949637,-179.977897149" stroke="#000" stroke-linecap="round" stroke-linejoin="round"/><polyline fill="none" points="31.6481949637,-179.977897149 -56.6982515466,-197.150706733 -66.3973319232,-151.520121159 -85.1093840968,-63.4868370927 -38.6806505098,-52.7679193533 49.0126553209,-32.5223244624 60.7821555418,-79.7272115457 82.5551261457,-167.053826911 34.5969088705,-179.9041925 -52.3364154956,-203.197906559 -66.2974475677,-154.51000166 -91.1048095912,-67.9964490253 -41.7116689457,-52.8954504764 44.355759091,-26.5819970514 60.6255038448,-76.6551226343 88.4370333386,-162.250209101 37.7099617576,-179.716940588 -47.3867100463,-209.018074489 -66.078110879,-157.663872763 -96.8599237783,-73.0915368919 -44.9061730437,-53.1483604998 39.116065341,-20.8952450407 60.337528858,-73.4202104019 94.0521222654,-156.866757313 40.9850174639,-179.39240687 -41.8604193469,-214.558208434 -65.7155234632,-160.978767344 -102.32182134,-78.7596761557 -48.2605618433,-53.5504968429 33.30713899,-15.5148532863 59.8943490428,-70.0267121944 99.3477522538,-150.918176361 44.4172000375,-178.90669067 -35.7733871394,-219.765835647 -65.185780548,-164.449168954 -107.438221199,-84.9838855968 -51.7686768392,-54.1257532681 26.9470968034,-10.492887446 59.2720968033,-66.4814298007 104.272096803,-144.423716141 47.9990635122,-178.235965759 -29.145993551,-224.589392501 -64.4651125121,-168.066986892" stroke="#000" stroke-linecap="round" stroke-linejoin="round"/><polyline fill="none" points="-64.4651125121,-168.066986892 -112.157846293,-91.7426582381 -55.4217823716,-54.8978275193 20.0585687435,-5.880314368 58.4471615668,-62.7937437239 108.774522879,-137.407125254 51.7205829944,-177.356724046 -22.0031009917,-228.978603317 -63.5301290661,-171.821552665 -116.430801772,-99.0100231709 -59.2085674775,-55.8899767621 12.6686284268,-1.72662467843 57.3964346092,-58.975605928 112.805967388,-129.896573753 55.5691673271,-176.246020553 -14.373969204,-232.884855748 -62.3580642671,-175.699638069 -120.208949139,-106.755638188 -63.115169395,-57.1247726452 4.8086928251,1.92053996395 56.0975538025,-55.0415109089 116.319308375,-121.924545202 59.529693444,-174.881717861 -6.29213970176,-236.261570266 -60.9270205383,-179.68549497 -123.44627388,-114.944912939 -67.1252187581,-58.6238578177 -3.48560845126,5.01575248908 54.529146446,-51.0084450885 119.269728476,-113.52769843 63.5845623773,-173.242728167 2.20470997169,-239.064561313 -59.216209854,-183.760916697 -126.099244147,-123.539162125 -71.2199063718,-60.4077057392 -12.1745937627,7.51615648086 52.6710683473,-46.8958146791 121.615068228,-104.746699551 67.7137767346,-171.30925115 11.07494154,-241.252387681 -57.20619026,-187.905320844 -128.127158085,-132.495788064 -75.3780713052,-62.4953856089" stroke="#000" stroke-linecap="round" stroke-linejoin="round"/><polyline fill="none" points="-75.3780713052,-62.4953856089 -21.2147192215,9.38181029538 50.5046373298,-42.7253523204 123.316166824,-95.6260250267 71.8950393046,-169.063005797 20.273160033,-242.786689783 -54.8790959191,-192.095853084 -129.492477449,-141.768491771 -79.5763098899,-64.904334219 -30.5587967385,10.5760168961 48.0128593704,-38.5210029352 124.337188024,-86.2137367162 76.1038723091,-166.487454427 29.7504455671,-243.63251149 -52.218858901,-196.30751149 -130.161145242,-151.30751149 -83.789105065,-67.6501365021 -40.1562392428,11.0656371404 45.180645607,-34.3087894029 124.645928964,-76.5612300537 80.3137566647,-163.568017141 39.4546116881,-243.758604318 -49.2114209793,-200.513290687 -130.102885146,-161.059887476 -87.9889753637,-70.7463164976 -49.953331807,10.8213843357 41.9950185047,-30.1166587899" stroke="#000" stroke-linecap="round" stroke-linejoin="round"/><polygon fill="#000" fill-rule="evenodd" points="41.9950185047,-30.1166587899 31.7394261705,-31.0237562904 35.6002003012,-27.2695022884 35.8067926013,-21.888301714" stroke="#000" stroke-linejoin="round"/></svg>