<?xml version="1.0" ?><!DOCTYPE svg  PUBLIC '-//W3C//DTD SVG 1.1//EN'  'http://www.w3.org/Graphics/SVG/1.1/DTD/svg11.dtd'><svg height="55.000" viewBox="-22.000 -38.000 145.000 55.000" width="145.000" xmlns="http://www.w3.org/2000/svg"><line fill="none" stroke="none" stroke-linecap="round" stroke-width="2.0" x1="0.0" x2="0.0" y1="0.0" y2="0.0"/><line fill="none" stroke="#000" stroke-linecap="round" x1="0.0" x2="60.0" y1="0.0" y2="0.0"/><polygon fill="#0a2217" fill-rule="evenodd" points="5.0,-6.0 11.0,-6.0 11.0,-12.0 5.0,-12.0 5.0,-6.0" stroke-linejoin="round"/><polyline fill="none" points="5.0,-6.0 11.0,-6.0 11.0,-12.0 5.0,-12.0 5.0,-6.0" stroke="#000" stroke-linecap="round" stroke-linejoin="round" stroke-width="5.0"/><polygon fill="#0a2217" fill-rule="evenodd" points="0.0,0.0 4.64723172044,-1.14543974347 8.22983865894,-4.31935253269 9.92708874098,-8.79463319745 9.35016242685,-13.5460488704 6.63122658241,-17.4851074817 2.39315664288,-19.7094181743 -2.39315664288,-19.7094181743 -6.63122658241,-17.4851074817 -9.35016242685,-13.5460488704 -9.92708874098,-8.79463319745 -8.22983865894,-4.31935253269 -4.64723172044,-1.14543974347 3.5527136788e-15,3.99680288865e-15" stroke-linejoin="round"/><polyline fill="none" points="0.0,0.0 4.64723172044,-1.14543974347 8.22983865894,-4.31935253269 9.92708874098,-8.79463319745 9.35016242685,-13.5460488704 6.63122658241,-17.4851074817 2.39315664288,-19.7094181743 -2.39315664288,-19.7094181743 -6.63122658241,-17.4851074817 -9.35016242685,-13.5460488704 -9.92708874098,-8.79463319745 -8.22983865894,-4.31935253269 -4.64723172044,-1.14543974347 3.5527136788e-15,3.99680288865e-15" stroke="#000" stroke-linecap="round" stroke-linejoin="round" stroke-width="2.0"/><polygon fill="#0a2217" fill-rule="evenodd" points="10.3,-10.0 110.3,-10.0 60.3,-15.0 10.3,-10.0" stroke-linejoin="round"/><polyline fill="none" points="10.3,-10.0 110.3,-10.0 60.3,-15.0 10.3,-10.0" stroke="#000" stroke-linecap="round" stroke-linejoin="round" stroke-width="2.0"/><text fill="#0a2217" font-family="Arial" font-size="24.0pt" stroke-width="0.0" x="0.0" y="-5">juancho</text><line fill="none" stroke="none" stroke-linecap="round" stroke-width="2.0" x1="0.0" x2="0.0" y1="0.0" y2="0.0"/><polygon fill="#000" fill-rule="evenodd" points="1.0,0.0 -8.0,-5.0 -6.0,-4.93494134446e-14 -8.0,5.0" stroke="#000" stroke-linejoin="round"/></svg>