<?xml version="1.0" ?><!DOCTYPE svg  PUBLIC '-//W3C//DTD SVG 1.1//EN'  'http://www.w3.org/Graphics/SVG/1.1/DTD/svg11.dtd'><svg height="307.000" viewBox="-185.000 -234.000 368.000 307.000" width="368.000" xmlns="http://www.w3.org/2000/svg"><line fill="none" stroke="none" stroke-linecap="round" stroke-width="2.0" x1="0.0" x2="0.0" y1="0.0" y2="0.0"/><polyline fill="none" points="0.0,0.0 60.0,0.0 30.0,-51.9615242271" stroke="#000" stroke-linecap="round" stroke-linejoin="round"/><polygon fill="#0a22ff" fill-rule="evenodd" points="100.0,-60.0 160.0,-60.0 160.0,-120.0 100.0,-120.0 100.0,-60.0" stroke-linejoin="round"/><polyline fill="none" points="100.0,-60.0 160.0,-60.0 160.0,-120.0 100.0,-120.0 100.0,-60.0" stroke="#000" stroke-linecap="round" stroke-linejoin="round" stroke-width="5.0"/><polygon fill="#0a2217" fill-rule="evenodd" points="-100.0,60.0 -95.3527682796,58.8545602565 -91.7701613411,55.6806474673 -90.072911259,51.2053668026 -90.6498375731,46.4539511296 -93.3687734176,42.5148925183 -97.6068433571,40.2905818257 -102.393156643,40.2905818257 -106.631226582,42.5148925183 -109.350162427,46.4539511296 -109.927088741,51.2053668026 -108.229838659,55.6806474673 -104.64723172,58.8545602565 -100.0,60.0" stroke-linejoin="round"/><polyline fill="none" points="-100.0,60.0 -95.3527682796,58.8545602565 -91.7701613411,55.6806474673 -90.072911259,51.2053668026 -90.6498375731,46.4539511296 -93.3687734176,42.5148925183 -97.6068433571,40.2905818257 -102.393156643,40.2905818257 -106.631226582,42.5148925183 -109.350162427,46.4539511296 -109.927088741,51.2053668026 -108.229838659,55.6806474673 -104.64723172,58.8545602565 -100.0,60.0" stroke="#000" stroke-linecap="round" stroke-linejoin="round" stroke-width="2.0"/><polygon fill="#0a22ff" fill-rule="evenodd" points="50.0,-10.0 170.0,-10.0 110.0,-15.0 50.0,-10.0" stroke-linejoin="round"/><polyline fill="none" points="50.0,-10.0 170.0,-10.0 110.0,-15.0 50.0,-10.0" stroke="#000" stroke-linecap="round" stroke-linejoin="round" stroke-width="2.0"/><text fill="#ff2217" font-family="Arial" font-size="24.0pt" stroke-width="0.0" x="-101.0" y="-65">juancho</text><polyline fill="none" points="-100.0,-60.0 -10.0,-60.0 -10.3830803213,-38.0533430914 -8.81236374197,-128.039635655 12.1248740841,-127.3084912 -77.8203003476,-130.449445903 -76.7761980206,-150.372105121 -81.4864340824,-60.4954469932 -100.390272835,-61.8173321706 -10.6095083115,-55.5392495337 -12.1739538938,-37.6575547029 -4.32993704653,-127.315077531 12.52720908,-125.543320079 -76.9797615032,-134.950881773 -75.0359454759,-150.781992892 -86.0041863823,-61.4528392438 -100.80869401,-63.5334771031 -11.6845678232,-51.0078980168 -13.8668286105,-37.2296456655 0.21227324303,-126.121596319 12.9655336445,-123.872852418 -75.6671641266,-139.501188408 -73.3869966318,-151.23163325 -90.5598062157,-62.8851867402 -101.270522444,-65.1618197546 -13.2372383777,-46.449767581 -15.4755013684,-36.7547854364 4.77009352253,-124.448091267 13.4542402727,-122.282890301 -73.8723750921,-144.055860905 -71.8147636836,-151.734971224 -95.1084777428,-64.8016468584 -101.78924653,-66.7173264813 -15.2756938951,-41.9099644578 -17.0153055382,-36.2199511599 9.29814788683,-122.287379197 14.0058776425,-120.757745074 -71.5892088241,-148.569274568 -70.303214614,-152.304072942 -99.6043485151,-67.2074011378 -102.376441746,-68.2163605606 -17.8041058757,-37.4345476613 -18.5029233773,-35.6140658296" stroke="#000" stroke-linecap="round" stroke-linejoin="round" stroke-width="2.0"/><polyline fill="none" points="-18.5029233773,-35.6140658296 13.7501920818,-119.636304214 14.6310167436,-119.280427951 -68.8155301674,-152.995021358 -68.8350667238,-152.948996115 -104.000868288,-70.1035593046 -103.041645557,-69.6764858294 -20.8225543695,-33.0701879526 -19.9561869329,-34.928118916 18.0794566237,-116.495819749 15.3381347825,-117.832851747 -65.5533293844,-157.286254958 -67.3919909084,-153.677678535 -108.251135885,-73.4870913581 -103.792250541,-71.116259966 -24.3269671836,-28.8638193153 -21.3938689811,-34.1552685435 22.238996841,-112.871042186 16.1335177443,-116.396042186 -61.8087685963,-161.396042186 -65.9548250993,-154.495845415 -112.308251841,-77.3507883522 -104.633416571,-72.5550190109 -28.3090879169,-24.8622852299 -22.835465615,-33.2909244378 26.1820475363,-108.771275553 17.0211823596,-114.950357136 -57.5921991704,-165.277718449 -64.5037952284,-155.406936315 -116.1256745,-81.6832523289 -105.568002723,-74.0126547865 -32.7564732296,-21.1119820802 -24.3009721543,-32.3328109963 29.8623799293,-104.210006901 18.0028180875,-113.475712104 -52.9181497371,-168.885244884 -63.0187420134,-156.412052202 -119.657577208,-86.468915671 -106.596519453,-75.5093869258 -37.652519572,-17.6585020541 -25.8106540987,-31.2810099771 33.2346585104,-99.2048721972 19.0777495851,-111.951810248" stroke="#000" stroke-linecap="round" stroke-linejoin="round" stroke-width="2.0"/><polyline fill="none" points="19.0777495851,-111.951810248 -47.8052847079,-172.173564821 -61.4793518272,-157.509923103 -122.859204233,-91.6880899574 -107.717101436,-77.0655312592 -42.9765194051,-14.5462779179 -27.38481488,-30.1379824431 36.2547954268,-93.7775927499 20.2429199877,-110.358375148 -42.2763333536,-175.098957178 -59.8653898776,-158.696896619 -125.687223023,-97.317044213 -108.925501334,-78.7012663348 -48.7037467616,-11.8182320419 -29.0435621968,-28.9085697471 38.8803000232,-87.9538823563 21.4928951811,-108.675384543 -36.3579896907,-177.619384423 -58.1569339095,-159.966947454 -128.100070441,-103.32811226 -110.215104582,-80.4363998676 -54.8055718031,-9.51543204297 -30.8065747262,-27.5999734887 41.0706211781,-81.7633255724 22.8198890944,-106.883303248 -30.080783612,-179.694832741 -56.3346066314,-161.311707956 -130.058290617,-109.689828685 -111.576965158,-82.2901369118 -61.2496038453,-7.67675538192 -32.6928710068,-26.2217145242 42.7874801083,-75.2392276756 24.2138098969,-104.963313446 -23.4789238841,-181.2876421 -54.3798050744,-162.720519499 -131.524862138,-116.367092757 -112.999862138,-84.2808515472 -67.9998621375,-6.33856520666 -34.7205822809,-24.7855712571 43.9951913616,-68.4184370793 25.6623268348,-102.89754058 -16.5901138159,-182.362823938 -52.2749251097,-164.180504423" stroke="#000" stroke-linecap="round" stroke-linejoin="round" stroke-width="2.0"/><polyline fill="none" points="-52.2749251097,-164.180504423 -132.465512287,-123.321359446 -114.470376711,-86.4258638459 -75.0169734998,-5.53439967901 -36.906731055,-23.3054975852 44.6609697783,-61.3411411419 27.1509572939,-100.669273093 -9.45534058296,-182.888364281 -50.0035793775,-165.676658071 -132.849016188,-130.510856507 -115.972989155,-88.741223859 -82.2583957474,-5.29467694799 -39.2670171072,-21.7975210246 44.7552212776,-54.0506364837 28.6631735341,-98.2631742917 -2.11863936528,-182.835510162 -47.5508069228,-167.191960341 -132.647478727,-137.890826439 -117.490195153,-91.2415043152 -89.6786656588,-5.64641784868 -41.8156126229,-20.2796216701 44.2518154138,-46.5930750952 30.1805283993,-95.6654846728 5.37316637571,-182.179037307 -44.9032728826,-168.70750601 -131.836597249,-145.41379195 -119.002640687,-93.9396036714 -97.229670083,-6.6129883066 -44.5649680814,-18.7715927939 43.1283377493,-39.0171876849 31.6827991697,-92.8642131053 12.9707469961,-180.897497171 -42.0494566362,-170.20265298 -130.395903146,-153.029843397 -120.489274611,-96.8465610872 -104.86093862,-8.21386331608 -47.5256304489,-17.2948840117 41.3663202046,-31.3739858654 33.1481485929,-89.8493153245 20.6225695065,-178.973441511 -38.9798268996,-171.65518744 -128.308980547,-160.686946533 -121.927517865,-99.971384821" stroke="#000" stroke-linecap="round" stroke-linejoin="round" stroke-width="2.0"/><polyline fill="none" points="-121.927517865,-99.971384821 -112.519956171,-10.4644142379 -50.7060751541,-15.8724280754 38.9514476742,-23.7164449227 34.5533020046,-86.6128582916 28.2752193676,-176.393622815 -35.6870023334,-173.041504818 -125.563660461,-168.331268756 -123.293448201,-103.320895458 -120.152493498,-13.3757210264 -54.1125532325,-14.5284524716 35.8737393316,-16.099169051 35.8737393316,-83.149169051 35.8737393315,-173.149169051 -32.1658963239,-174.336805309 -122.152188888,-175.907521888 -124.561999135,-106.899585283 -127.702953838,-16.954410851 -57.7489549288,-13.2882771162 32.1277031991,-8.57804105435 37.0839006586,-79.4549668253 43.3619832955,-169.235731349 -28.413844702,-175.515302614 -118.07136753,-183.359319461 -125.707171772,-110.709495004 -135.114733466,-21.2025244211 -61.616690937,-12.178099542 27.7124627108,-1.20985863554 38.1574039378,-75.5294771946 50.6829830241,-164.653603381 -24.4307152781,-176.550444448 -113.322665932,-190.629546301 -126.702258021,-114.750108932 -142.330594011,-26.1174111605 -65.7145923428,-11.2247690714 22.6318541675,5.94804051245 39.0672733266,-71.3745273256 57.7793255002,-159.407811392 -20.2189981859,-177.415143292 -107.912304017,-197.660738183 -127.520073655,-119.018269568 -149.293044259,-31.6916542032 -70.0388302118,-10.4555515526" stroke="#000" stroke-linecap="round" stroke-linejoin="round" stroke-width="2.0"/><polyline fill="none" points="-70.0388302118,-10.4555515526 16.8944941543,12.8381625066 39.7861765548,-66.9946213411 64.5935385783,-153.508173976 -15.7838761604,-178.082015757 -101.851304197,-204.395469182 -128.133199569,-123.508112472 -155.944729062,-37.9130260049 -74.582855632,-9.89788631394 10.5138161719,19.4032475872 40.2866696484,-62.3969950523 71.0684825477,-146.969330923 -11.1332740054,-178.52362888 -95.1555123902,-210.776744339 -128.514229534,-128.21102209 -162.228822941,-44.7644751793 -79.3373608878,-9.57913705884 3.50807592293,25.5866645052 40.5414472749,-57.5916494132 77.1477451517,-139.810740601 -6.27788664502,-178.712751594 -87.8455874783,-216.748395151 -128.636022687,-133.115609143 -168.089425898,-52.2241449758 -84.2902622981,-9.52633847532 -4.09967512109,31.3328065012 40.5235969217,-52.5913622001 82.7760375724,-132.056645557 -1.2311852984,-178.622609582 -79.946958941,-222.255475404 -128.471958941,-138.207709967 -173.471958941,-60.2654236262 -89.426705107,-9.76594038133 -12.2816480438,36.5874863605 40.2068550784,-47.4116775638 87.8995888594,-123.736006218 3.99059853643,-178.227141671" stroke="#000" stroke-linecap="round" stroke-linejoin="round" stroke-width="2.0"/><polygon fill="#000" fill-rule="evenodd" points="3.99059853643,-178.227141671 8.81543847287,-169.132037516 9.86129251205,-174.414668426 14.261828823,-177.518743196" stroke="#000" stroke-linejoin="round"/></svg>