<?xml version="1.0" ?><!DOCTYPE svg  PUBLIC '-//W3C//DTD SVG 1.1//EN'  'http://www.w3.org/Graphics/SVG/1.1/DTD/svg11.dtd'><svg height="328.000" viewBox="-122.000 -255.000 305.000 328.000" width="305.000" xmlns="http://www.w3.org/2000/svg"><line fill="none" stroke="none" stroke-linecap="round" stroke-width="2.0" x1="0.0" x2="0.0" y1="0.0" y2="0.0"/><polyline fill="none" points="0.0,0.0 60.0,0.0 30.0,-51.9615242271" stroke="#000" stroke-linecap="round" stroke-linejoin="round"/><polygon fill="#0a22ff" fill-rule="evenodd" points="100.0,-60.0 160.0,-60.0 160.0,-120.0 100.0,-120.0 100.0,-60.0" stroke-linejoin="round"/><polyline fill="none" points="100.0,-60.0 160.0,-60.0 160.0,-120.0 100.0,-120.0 100.0,-60.0" stroke="#000" stroke-linecap="round" stroke-linejoin="round" stroke-width="5.0"/><polygon fill="#0a2217" fill-rule="evenodd" points="-100.0,60.0 -95.3527682796,58.8545602565 -91.7701613411,55.6806474673 -90.072911259,51.2053668026 -90.6498375731,46.4539511296 -93.3687734176,42.5148925183 -97.6068433571,40.2905818257 -102.393156643,40.2905818257 -106.631226582,42.5148925183 -109.350162427,46.4539511296 -109.927088741,51.2053668026 -108.229838659,55.6806474673 -104.64723172,58.8545602565 -100.0,60.0" stroke-linejoin="round"/><polyline fill="none" points="-100.0,60.0 -95.3527682796,58.8545602565 -91.7701613411,55.6806474673 -90.072911259,51.2053668026 -90.6498375731,46.4539511296 -93.3687734176,42.5148925183 -97.6068433571,40.2905818257 -102.393156643,40.2905818257 -106.631226582,42.5148925183 -109.350162427,46.4539511296 -109.927088741,51.2053668026 -108.229838659,55.6806474673 -104.64723172,58.8545602565 -100.0,60.0" stroke="#000" stroke-linecap="round" stroke-linejoin="round" stroke-width="2.0"/><polygon fill="#0a22ff" fill-rule="evenodd" points="50.0,-10.0 170.0,-10.0 110.0,-15.0 50.0,-10.0" stroke-linejoin="round"/><polyline fill="none" points="50.0,-10.0 170.0,-10.0 110.0,-15.0 50.0,-10.0" stroke="#000" stroke-linecap="round" stroke-linejoin="round" stroke-width="2.0"/><text fill="#ff2217" font-family="Arial" font-size="24.0pt" stroke-width="0.0" x="-101.0" y="-65">juancho</text><polyline fill="none" points="30.0,-51.9615242271 90.0,-51.9615242271 60.0,-103.923048454 14.9999999999,-181.865334795 34.1979025716,-192.506905959 -44.5178710709,-148.874040137 -54.3533003113,-167.371792207 -12.1008596605,-87.90650885 -29.876439818,-78.8493983802 50.3141473589,-119.708543357 58.6212805906,-102.676396179 19.1678773795,-183.567860346 35.4361021568,-191.153858145 -46.1315986765,-153.118214588 -53.0257847766,-168.602810095 -16.4194868998,-86.3837189071 -31.1015393123,-80.1515574077 51.7438974984,-115.317358972 57.34426607,-101.455960346 23.6296726625,-184.902507257 36.6531196121,-189.901740153 -47.3691187726,-157.648624694 -51.7982796287,-169.817644133 -21.0164667293,-85.2453082625 -32.3154137077,-81.3547688168 52.7812580962,-110.655902718 56.1649941846,-100.241833865 28.3534646908,-185.836920331 37.8686970126,-188.746018793 -48.198731024,-162.432565368 -50.6656853586,-171.035857547 -25.858323335,-84.5223049122 -33.537433654,-82.4646935036 53.395890712,-105.758407563 55.0772478864,-99.0148522653 33.3042772824,-186.34146763 39.1017791679,-187.679926403 -48.5915266628,-167.434331512 -49.6206895323,-172.276162136 -30.9086373587,-84.2428780701 -34.7860647333,-83.4891825383 53.560381777,-100.661992122 54.0726439011,-97.7568092509" stroke="#000" stroke-linecap="round" stroke-linejoin="round"/><polyline fill="none" points="54.0726439011,-97.7568092509 38.444307911,-186.389507022 40.3703001752,-186.694554229 -48.5216504784,-172.615452375 -48.6538649243,-173.55620704 -36.1282858378,-84.4320808537 -36.0786585303,-84.4381743209 53.2504951174,-95.4064152274 53.140740231,-96.4506632175 43.7331785369,-185.957633801 41.6909794058,-185.778964528 -47.9665434225,-177.934947681 -47.7537861775,-174.892377327 -41.4757035405,-85.111612804 -37.4312539248,-85.3235734268 52.4454042031,-90.0338094887 52.2691617448,-95.0807331651 49.1282070415,-185.025907597 43.0791284858,-184.920320538 -46.9071640782,-183.349603959 -46.9071640782,-176.299603959 -46.9071640782,-86.2996039585 -38.8583901322,-86.1591120867 51.1279024319,-84.5883955074 51.443742877,-93.6328824919 54.5846975802,-183.578056924 44.5484707559,-184.104033284 -45.328187372,-188.814269346 -46.0989964068,-177.79118659 -52.3770790438,-88.0104220669 -40.3729329318,-86.9601953668 49.2845898965,-79.1161785196 50.6486863421,-92.0946892541 60.0562480362,-181.601659837 46.1109746056,-183.313924112 -43.2181790421,-194.282165019 -45.3127342115,-179.378630584 -57.8383132979,-90.2545043972 -41.9859154314,-87.7437312333 46.9060352222,-73.6646293798 49.8667366514,-90.4556015686 65.4950726414,-179.08829934 47.7767019802,-182.532401706" stroke="#000" stroke-linecap="round" stroke-linejoin="round"/><polyline fill="none" points="47.7767019802,-182.532401706 -40.5697445301,-199.70521129 -44.5304622402,-181.071499496 -63.2425144138,-93.0382154301 -43.7063946148,-88.5279467905 43.9869112159,-68.2823518996 49.0793671182,-88.7070769377 70.8523377222,-176.033692303 49.5536732525,-181.740652247 -37.3796511135,-205.034366306 -43.7330921651,-182.877284215 -68.5404541886,-96.3637315804 -45.5413248077,-89.3321920818 40.526103229,-63.0187386568 48.2669789381,-86.84270439 76.0785084318,-172.437790857 51.4477495374,-180.91884128 -33.6489222665,-210.219975181 -42.9005671435,-184.801289789 -73.6823800427,-100.228953918 -47.4954490795,-90.1767329336 36.5267893053,-57.9236174745 47.409110844,-84.8583084497 81.1237042514,-168.304855361 53.4625334051,-180.046325772 -29.3829034056,-215.212127336 -42.0120761731,-186.846540876 -78.6183740499,-104.627449688 -49.5712094754,-91.0825343994 31.996491358,-53.0468908427 46.4846577593,-82.7520340729 85.9380609703,-163.64349824 55.5992888217,-179.101874756 -24.5912983553,-219.961019733 -41.0462766309,-189.013706603 -83.2987172816,-109.548423245 -51.7686768392,-92.0710364356 26.9470968033,-48.4381706135 45.4720968033,-80.5244118237 90.4720968033,-158.466698164 57.8568810116,-178.063896915 -19.2881760516,-224.417323657 -39.9815233199,-191.301045502" stroke="#000" stroke-linecap="round" stroke-linejoin="round"/><polyline fill="none" points="-39.9815233199,-191.301045502 -87.6742571009,-114.976716847 -54.0855008547,-93.1639234951 21.3948502604,-44.1464103438 44.3497189479,-78.1784026972 94.6770802602,-152.791784227 60.2317367979,-176.910673376 -13.4919471882,-228.532552647 -38.7961022993,-193.704371039 -91.6967750056,-120.892841546 -56.516880788,-94.3828897759 15.3603151163,-40.2195376922 43.0958645797,-75.7194221422 98.5053973589,-146.640389967 62.7178258338,-175.620593975 -7.22531069733,-232.259429169 -37.4684677331,-196.21703812 -95.3193526048,-127.27303824 -59.0555572751,-95.7494018966 8.86830494498,-36.7040892875 41.6891611869,-73.1553429772 101.910915759,-140.03837727 65.3066629931,-174.172395191 -0.51517015268,-235.552247597 -35.9774799646,-198.82995079 -98.4967333059,-134.089368759 -61.6918253451,-97.2844607983 1.94778496172,-33.6448504916 40.1087613697,-70.4964770445 104.8493434,-133.015730386 67.9873320387,-172.545397958 6.60747963307,-238.367231104 -34.3026430094,-201.531591224 -101.185677302,-141.309836652 -64.4135687274,-99.0083646801 -5.36825611827,-31.0845024601 38.3345793617,-67.7555355927 107.278579242,-125.606420465 70.7465305419,-170.719743527 14.1076953474,-240.662880058 -32.4243396531,-204.30806994 -103.345307478,-148.898537161 -67.2063153374,-100.940474783" stroke="#000" stroke-linecap="round" stroke-linejoin="round"/><polyline fill="none" points="-67.2063153374,-100.940474783 -13.0429632537,-29.0632788783 36.3475242529,-64.9475685308 109.159053747,-117.848241237 73.568635871,-168.676625585 21.9467565994,-242.400309571 -30.3240623502,-207.143197007 -104.93744388,-156.815835695 -70.0533136874,-103.098985818 -21.035800536,-27.618634703 34.129728119,-62.0898828414 110.454056773,-109.782616622 76.4357919252,-166.398516834 30.0823651832,-243.543573897 -27.9846381405,-210.018573897 -105.926924481,-165.018573897 -72.9356298233,-105.500702826 -29.3027640011,-26.7849291836 31.6647672858,-59.201940594 111.130050643,-101.454381245 79.3280161363,-163.869388264 38.4688711597,-244.059975441 -25.3904458298,-212.913705462 -106.281909997,-173.460302251 -75.8322642383,-108.160826195 -37.7966206816,-26.5931253614 28.9378749992,-56.3052371381 111.156966187,-92.9115350149 82.2233261224,-161.074919413 47.0575245583,-243.920356224 -22.5276237269,-215.806131388 -105.974170638,-182.09153798 -78.720288075,-111.092746545 -46.4671726159,-27.0705081606 25.9361438157,-53.4231602038 110.508479686,-84.2049731032 85.097885231,-158.002697929 55.7967513298,-243.099369733 -19.3842662833,-218.671576327 -104.97935275,-190.860046833 -81.5749977868,-114.307851119 -55.2615443617,-28.240423082 22.6487160941,-50.580830771" stroke="#000" stroke-linecap="round" stroke-linejoin="round"/><polyline fill="none" points="22.6487160941,-50.580830771 109.162268729,-75.3881927946 87.9261660778,-154.642406842 64.6324520186,-241.575731208 -15.9506080486,-221.484117778 -103.277223413,-199.711147174 -84.3700872958,-117.815343229 -64.1244924048,-30.1220373981 19.0669610376,-47.8049267022 107.100245104,-66.5169788759 90.6811310514,-150.985998012 73.5083214675,-239.332444522 -12.2191934322,-224.216370656 -100.851891203,-208.588034666 -87.0778365565,-121.622076276 -72.9987347028,-32.7301256228 15.1846368186,-45.1234902634 104.308763005,-57.6490693498 93.3344286317,-147.027850305 82.3661877252,-236.357003953 -8.18503084812,-226.839687372 -97.6920014313,-217.432125678 -89.6693153113,-125.732403719 -81.825298464,-36.0748808905 10.9980364127,-42.5657207725 100.778800936,-48.8438034095 95.8566042514,-142.764911153 91.1463681895,-232.641569281 -3.84572991867,-229.324372119 -93.7909043504,-226.183417416 -92.114600712,-130.148046296 -90.5438841326,-40.1617537323 6.50611586735,-40.1617537324 96.5061158674,-40.1617537324 98.2173243185,-138.196820243 99.7880408978,-228.183112807 0.798379481552,-231.639907955 -89.1467949502,-234.780862658 -94.3830073722,-134.867977706" stroke="#000" stroke-linecap="round" stroke-linejoin="round"/><polygon fill="#000" fill-rule="evenodd" points="-94.3830073722,-134.867977706 -88.9188360923,-143.593963737 -94.0166556785,-141.858384449 -98.9051314398,-144.1173233" stroke="#000" stroke-linejoin="round"/></svg>